# Blender v2.79 (sub 0) OBJ File: ''
# www.blender.org
mtllib lempa.mtl
o lempa
v 1.251080 -3.874420 0.012446
v 1.239860 -3.435780 -0.305514
v 1.239860 -3.435780 -0.006964
v 1.251080 -3.874420 -0.324924
v 0.981295 -3.435780 -0.156244
v 0.958895 -3.874420 -0.156244
v 1.183500 2.448550 -0.214573
v 1.205430 -3.434440 -0.071144
v 1.205430 -3.434440 -0.252554
v 1.183500 2.448550 -0.109123
v 0.494835 3.395840 -0.211322
v 0.494835 3.395840 -0.112372
v -0.393365 3.765420 -0.208012
v -0.393365 3.765420 -0.115692
v -1.469970 3.874420 -0.194592
v -1.469970 3.874420 -0.129112
v 1.048320 -3.434440 -0.161854
v 1.092180 2.431400 -0.161853
v 0.432805 3.318970 -0.161852
v -0.400205 3.685550 -0.161852
v -1.470660 3.817710 -0.161852
v -1.588250 3.839940 -0.109452
v -1.633560 3.721930 -0.227782
v -1.633560 3.721930 -0.101902
v -1.588250 3.839940 -0.220232
v -0.923735 3.752340 -0.220232
v -0.878415 3.634330 -0.101902
v -0.878415 3.634330 -0.227782
v -0.923735 3.752340 -0.109452
vt 0.000499 0.000499
vt 0.942025 0.999500
vt 0.057975 0.999500
vt 0.999501 0.000499
vt 0.000500 0.000499
vt 0.922912 0.999500
vt 0.038862 0.999500
vt 0.999501 0.000499
vt 0.000500 0.000499
vt 0.999500 0.000499
vt 0.991314 0.790350
vt 0.999501 0.000499
vt 0.999501 0.999501
vt 0.991314 0.209650
vt 0.734233 0.772453
vt 0.734233 0.227549
vt 0.402662 0.754227
vt 0.402662 0.245833
vt 0.000757 0.680326
vt 0.000757 0.319736
vt 0.961138 0.999500
vt 0.077088 0.999500
vt 0.940850 0.500028
vt 0.957223 0.500028
vt 0.711077 0.500029
vt 0.400109 0.500030
vt 0.000500 0.500031
vt 0.999501 0.999501
vt 0.961138 0.057975
vt 0.961138 0.942025
vt 0.077088 0.500015
vt 0.020000 0.001000
vt 0.000000 0.000000
vt 0.020000 0.000000
vt 0.000000 0.001000
vt 0.020000 0.001000
vt 0.000000 0.000000
vt 0.020000 0.000000
vt 0.000000 0.001000
vt 0.000000 0.000000
vt 0.020000 0.001000
vt 0.000000 0.001000
vt 0.020000 0.000000
vt 0.020000 0.001000
vt 0.000000 0.000000
vt 0.020000 0.000000
vt 0.000000 0.001000
vt 0.000000 0.000000
vt 0.020000 0.000000
vt 0.020000 0.001000
vt 0.000000 0.001000
vn 0.4221 -0.5361 0.7310
vn 0.4097 0.5733 -0.7096
vn 0.4097 0.5733 0.7096
vn 0.4221 -0.5361 -0.7310
vn -0.8193 0.5733 -0.0000
vn -0.8441 -0.5361 -0.0000
vn 0.5784 0.1983 -0.7913
vn 0.4169 -0.5520 0.7221
vn 0.4169 -0.5520 -0.7221
vn 0.5767 0.2004 0.7920
vn 0.3781 0.4866 -0.7876
vn 0.3816 0.4835 0.7878
vn 0.1348 0.5362 -0.8333
vn 0.1324 0.5378 0.8326
vn -0.5353 0.4591 -0.7090
vn -0.5354 0.4591 0.7089
vn -0.8339 -0.5520 -0.0000
vn -0.9421 -0.3352 0.0020
vn -0.6231 -0.7821 0.0001
vn -0.2774 -0.9608 -0.0018
vn -0.6047 -0.7964 -0.0001
vn -0.4115 0.7115 0.5696
vn -0.6993 -0.4145 -0.5823
vn -0.6991 -0.4145 0.5826
vn -0.4118 0.7116 -0.5693
vn 0.4937 0.6450 -0.5833
vn 0.6517 -0.4978 0.5722
vn 0.6519 -0.4979 -0.5720
vn 0.4933 0.6449 0.5838
usemtl lampost_16clr
s 1
f 1/1/1 2/2/2 3/3/3
f 4/4/4 2/2/2 1/1/1
f 4/5/4 5/6/5 2/7/2
f 6/8/6 5/6/5 4/5/4
f 6/9/6 4/5/4 1/10/1
f 7/11/7 8/12/8 9/13/9
f 7/11/7 10/14/10 8/12/8
f 11/15/11 10/14/10 7/11/7
f 11/15/11 12/16/12 10/14/10
f 13/17/13 12/16/12 11/15/11
f 13/17/13 14/18/14 12/16/12
f 15/19/15 14/18/14 13/17/13
f 15/19/15 16/20/16 14/18/14
f 3/21/3 6/9/6 1/10/1
f 3/21/3 5/22/5 6/9/6
f 10/14/10 17/23/17 8/12/8
f 10/14/10 18/24/18 17/23/17
f 12/16/12 18/24/18 10/14/10
f 12/16/12 19/25/19 18/24/18
f 14/18/14 19/25/19 12/16/12
f 14/18/14 20/26/20 19/25/19
f 16/20/16 20/26/20 14/18/14
f 16/20/16 21/27/21 20/26/20
f 13/17/13 21/27/21 15/19/15
f 13/17/13 20/26/20 21/27/21
f 11/15/11 20/26/20 13/17/13
f 11/15/11 19/25/19 20/26/20
f 7/11/7 19/25/19 11/15/11
f 7/11/7 18/24/18 19/25/19
f 9/13/9 18/24/18 7/11/7
f 9/13/9 17/23/17 18/24/18
f 8/28/8 17/23/17 9/13/9
f 3/29/3 2/30/2 5/31/5
f 22/32/22 23/33/23 24/34/24
f 25/35/25 23/33/23 22/32/22
f 26/36/26 27/37/27 28/38/28
f 29/39/29 27/37/27 26/36/26
f 28/40/28 25/41/25 26/42/26
f 23/43/23 25/41/25 28/40/28
f 29/44/29 24/45/24 27/46/27
f 22/47/22 24/45/24 29/44/29
f 25/41/25 29/48/29 26/49/26
f 22/47/22 29/48/29 25/41/25
f 16/20/16 15/19/15 21/27/21
usemtl Material.001
f 27/37/27 23/50/23 28/51/28
f 24/34/24 23/50/23 27/37/27
